<svg width="14" height="8" viewBox="0 0 14 8" fill="none" xmlns="http://www.w3.org/2000/svg">
<path d="M0 1C0 0.447715 0.447715 0 1 0H13C13.5523 0 14 0.447715 14 1V7C14 7.55228 13.5523 8 13 8H1C0.447716 8 0 7.55228 0 7V1Z" fill="#D9D9D9"/>
<path d="M1.16859 2.07908C0.919562 1.7659 0.947219 1.32146 1.25156 1.03744C1.58631 0.725025 2.12893 0.725025 2.46368 1.03744L6.31817 4.63493C6.70237 4.99352 7.29859 4.99352 7.6828 4.63493L11.5373 1.03744L11.6334 0.959979C11.9689 0.727606 12.4451 0.75342 12.7494 1.03744C13.0842 1.34986 13.0842 1.8564 12.7494 2.16881L7.60658 6.96881L7.51044 7.04627C7.17488 7.27864 6.69865 7.25283 6.39442 6.96881L1.25156 2.16881L1.16859 2.07908Z" fill="#333333"/>
</svg>
