<svg width="14" height="8" viewBox="0 0 14 8" fill="none" xmlns="http://www.w3.org/2000/svg">
<path d="M0 1C0 0.447715 0.447715 0 1 0H13C13.5523 0 14 0.447715 14 1V7C14 7.55228 13.5523 8 13 8H1C0.447716 8 0 7.55228 0 7V1Z" fill="#D9D9D9"/>
<path d="M12.8314 5.92092C13.0804 6.2341 13.0528 6.67854 12.7484 6.96256C12.4137 7.27498 11.8711 7.27498 11.5363 6.96256L7.68183 3.36507C7.29763 3.00648 6.70141 3.00648 6.3172 3.36507L2.46275 6.96256L2.36661 7.04002C2.03105 7.27239 1.55487 7.24658 1.25056 6.96256C0.915829 6.65014 0.915829 6.14361 1.25056 5.83119L6.39342 1.03119L6.48956 0.953729C6.82512 0.721355 7.30135 0.747169 7.60557 1.03119L12.7484 5.83119L12.8314 5.92092Z" fill="#212121"/>
</svg>
