<svg width="17" height="18" viewBox="0 0 17 18" fill="none" xmlns="http://www.w3.org/2000/svg">
<path d="M4.74408 7.50781H2.68885C2.51432 7.50781 2.37305 7.64403 2.37305 7.81233V9.7941C2.37305 9.96219 2.51432 10.0986 2.68885 10.0986H4.74408C4.91861 10.0986 5.05988 9.96219 5.05988 9.7941V7.81233C5.05988 7.64423 4.91861 7.50781 4.74408 7.50781ZM4.42828 8.80321C4.42828 9.18229 4.12098 9.48959 3.74191 9.48959H3.69102C3.31195 9.48959 3.00465 9.18229 3.00465 8.80321C3.00465 8.42414 3.31195 8.11684 3.69102 8.11684H3.74191C4.12098 8.11684 4.42828 8.42414 4.42828 8.80321Z" fill="black"/>
<path d="M9.53754 7.50781H7.48231C7.30777 7.50781 7.1665 7.64403 7.1665 7.81233V9.7941C7.1665 9.96219 7.30777 10.0986 7.48231 10.0986H9.53754C9.71186 10.0986 9.85334 9.96219 9.85334 9.7941V7.81233C9.85334 7.64423 9.71186 7.50781 9.53754 7.50781ZM9.22174 8.80321C9.22174 9.18229 8.91444 9.48959 8.53536 9.48959H8.48448C8.10541 9.48959 7.79811 9.18229 7.79811 8.80321C7.79811 8.42414 8.10541 8.11684 8.48448 8.11684H8.53537C8.91444 8.11684 9.22174 8.42414 9.22174 8.80321Z" fill="black"/>
<path d="M14.183 7.50781H12.1278C11.9535 7.50781 11.812 7.64403 11.812 7.81233V9.7941C11.812 9.96219 11.9535 10.0986 12.1278 10.0986H14.183C14.3574 10.0986 14.4988 9.96219 14.4988 9.7941V7.81233C14.4988 7.64423 14.3574 7.50781 14.183 7.50781ZM13.8672 8.80321C13.8672 9.18229 13.5599 9.48959 13.1809 9.48959H13.13C12.7509 9.48959 12.4436 9.18229 12.4436 8.80321C12.4436 8.42414 12.7509 8.11684 13.13 8.11684H13.1809C13.5599 8.11684 13.8672 8.42414 13.8672 8.80321Z" fill="black"/>
<path d="M4.74408 12.0156H2.68885C2.51432 12.0156 2.37305 12.152 2.37305 12.3201V14.3019C2.37305 14.47 2.51432 14.6064 2.68885 14.6064H4.74408C4.91861 14.6064 5.05988 14.47 5.05988 14.3019V12.3201C5.05988 12.152 4.91861 12.0156 4.74408 12.0156ZM4.42828 13.311C4.42828 13.6901 4.12098 13.9974 3.74191 13.9974H3.69102C3.31195 13.9974 3.00465 13.6901 3.00465 13.311C3.00465 12.932 3.31195 12.6247 3.69102 12.6247H3.74191C4.12098 12.6247 4.42828 12.932 4.42828 13.311Z" fill="black"/>
<path d="M9.53754 12.0156H7.48231C7.30777 12.0156 7.1665 12.152 7.1665 12.3201V14.3019C7.1665 14.47 7.30777 14.6064 7.48231 14.6064H9.53754C9.71186 14.6064 9.85334 14.47 9.85334 14.3019V12.3201C9.85334 12.152 9.71186 12.0156 9.53754 12.0156ZM9.22174 13.311C9.22174 13.6901 8.91444 13.9974 8.53536 13.9974H8.48448C8.10541 13.9974 7.79811 13.6901 7.79811 13.311C7.79811 12.932 8.10541 12.6247 8.48448 12.6247H8.53537C8.91444 12.6247 9.22174 12.932 9.22174 13.311Z" fill="black"/>
<path d="M14.183 12.0156H12.1278C11.9535 12.0156 11.812 12.152 11.812 12.3201V14.3019C11.812 14.47 11.9535 14.6064 12.1278 14.6064H14.183C14.3574 14.6064 14.4988 14.47 14.4988 14.3019V12.3201C14.4988 12.152 14.3574 12.0156 14.183 12.0156ZM13.8672 13.311C13.8672 13.6901 13.5599 13.9974 13.1809 13.9974H13.13C12.7509 13.9974 12.4436 13.6901 12.4436 13.311C12.4436 12.932 12.7509 12.6247 13.13 12.6247H13.1809C13.5599 12.6247 13.8672 12.932 13.8672 13.311Z" fill="black"/>
<path d="M16.6842 1.60783H14.5984C14.5942 1.60783 14.5906 1.60504 14.5906 1.60081V1.20303C14.5906 0.539598 14.031 0 13.343 0C12.655 0 12.0954 0.539801 12.0954 1.20303C12.0954 1.4266 11.9142 1.60783 11.6906 1.60783H10.15C9.92644 1.60783 9.7452 1.4266 9.7452 1.20303C9.7452 0.539598 9.1856 0 8.49758 0C7.80955 0 7.24995 0.539801 7.24995 1.20303C7.24995 1.4266 7.06872 1.60783 6.84515 1.60783H5.30435C5.08079 1.60783 4.89955 1.4266 4.89955 1.20303C4.89955 0.539598 4.33995 0 3.65193 0C2.9639 0 2.4043 0.539801 2.4043 1.20303V1.60487C2.4043 1.60662 2.40289 1.60783 2.40114 1.60783H0.315801C0.141268 1.60783 0 1.74405 0 1.91235V17.6955C0 17.8636 0.141268 18 0.315801 18H16.6842C16.8585 18 17 17.8636 17 17.6955V1.91235C17 1.74405 16.8585 1.60783 16.6842 1.60783ZM12.727 1.20303C12.727 0.875375 13.0032 0.609027 13.343 0.609027C13.6828 0.609027 13.959 0.875375 13.959 1.20303V2.88334C13.959 3.21079 13.6828 3.47734 13.343 3.47734C13.0032 3.47734 12.727 3.21099 12.727 2.88334V1.20303ZM8.49758 0.609027C8.83717 0.609027 9.1136 0.875375 9.1136 1.20303V2.88334C9.1136 3.21079 8.83738 3.47734 8.49758 3.47734C8.15778 3.47734 7.88156 3.21099 7.88156 2.88334V1.94077C7.8824 1.93123 7.8845 1.92209 7.8845 1.91214C7.8845 1.90219 7.8824 1.89306 7.88156 1.88352V1.20303C7.88156 0.875375 8.15778 0.609027 8.49758 0.609027ZM3.0359 1.20303C3.0359 0.875375 3.31212 0.609027 3.65193 0.609027C3.99152 0.609027 4.26795 0.875375 4.26795 1.20303V2.88334C4.26795 3.21079 3.99173 3.47734 3.65193 3.47734C3.31212 3.47734 3.0359 3.21099 3.0359 2.88334V1.20303ZM16.3684 16.391C16.3684 16.9433 15.9207 17.391 15.3684 17.391H1.6316C1.07932 17.391 0.631602 16.9433 0.631602 16.391V3.21686C0.631602 2.66457 1.07932 2.21686 1.6316 2.21686H2.40114C2.40289 2.21686 2.4043 2.21807 2.4043 2.21982V2.88354C2.4043 3.54697 2.96411 4.08657 3.65193 4.08657C4.33974 4.08657 4.89955 3.54697 4.89955 2.88354C4.89955 2.51545 5.19794 2.21706 5.56603 2.21706H6.58347C6.95156 2.21706 7.24995 2.51545 7.24995 2.88354C7.24995 3.54697 7.80976 4.08657 8.49758 4.08657C9.18539 4.08657 9.7452 3.54697 9.7452 2.88354C9.7452 2.51545 10.0436 2.21706 10.4117 2.21706H11.4289C11.797 2.21706 12.0954 2.51545 12.0954 2.88354C12.0954 3.54697 12.655 4.08657 13.343 4.08657C14.031 4.08657 14.5906 3.54697 14.5906 2.88354V2.22389C14.5906 2.21956 14.5941 2.21686 14.5984 2.21686H15.3684C15.9207 2.21686 16.3684 2.66457 16.3684 3.21686V16.391Z" fill="black"/>
</svg>
