<svg width="24" height="24" viewBox="0 0 24 24" fill="none" xmlns="http://www.w3.org/2000/svg">
<path d="M23.7576 3.86874L20.6801 0.863911C20.2541 0.445987 19.408 0.592034 18.7957 1.18437L15.9738 3.91732L12.0918 0H0V24H19.0242V9.95383L23.4232 5.69614C24.0308 5.1038 24.1851 4.28425 23.7576 3.86874ZM12.4157 3.13126L14.5541 5.29149L13.3835 6.42577H12.4157V3.13126ZM12.8603 14.7658L8.60293 16.4409L7.68879 15.5471L9.42795 11.4158L12.8603 14.7658ZM17.0205 22.0546H2.00184V1.94538H10.914V7.88443H11.8772L10.7364 8.98763H4.13938V9.96017H9.7338L8.82929 10.8337L7.90801 13.0253H4.13938V13.9988H7.49969L6.2086 17.0628H4.13907V18.0347H14.8882V17.0628H9.09136L13.4524 15.3458L14.8432 13.9988H14.8867V13.9565L17.0186 11.8932V22.0549L17.0205 22.0546Z" fill="#8A8A8A"/>
</svg>
