<svg width="26" height="26" viewBox="0 0 26 26" fill="none" xmlns="http://www.w3.org/2000/svg">
<path fill-rule="evenodd" clip-rule="evenodd" d="M4.84394 23.0714L11.4278 16.3629C11.9854 15.7942 11.9777 14.88 11.4095 14.3218C10.8414 13.7637 9.9282 13.7714 9.37065 14.3401L2.89444 20.9379C2.88771 20.8618 2.88387 20.7849 2.88387 20.7069V13.9533C2.88387 13.1565 2.23788 12.5098 1.44193 12.5098C0.645987 12.5098 0 13.1565 0 13.9533V20.7069C0 23.6295 2.36669 25.9997 5.28709 25.9997C8.27863 25.9997 11.9248 25.9997 11.9248 25.9997C12.7207 25.9997 13.3667 25.3521 13.3667 24.5562C13.3667 23.7594 12.7207 23.1127 11.9248 23.1127H5.28709C5.13617 23.1127 4.98813 23.0983 4.84394 23.0714Z" fill="#8A8A8A"/>
<path fill-rule="evenodd" clip-rule="evenodd" d="M20.9257 2.89662L14.1428 9.80713C13.5853 10.3759 13.5939 11.2901 14.1611 11.8492C14.7292 12.4073 15.6424 12.3987 16.2 11.8309L23.0722 4.82802C23.102 4.97814 23.1174 5.13404 23.1174 5.29283V12.007C23.1174 12.8038 23.7634 13.4505 24.5593 13.4505C25.3553 13.4505 26.0013 12.8038 26.0013 12.007V5.29283C26.0013 2.36926 23.6336 0 20.7142 0C17.6746 0 13.94 0 13.94 0C13.144 0 12.498 0.646687 12.498 1.4435C12.498 2.24031 13.144 2.887 13.94 2.887C13.94 2.887 17.6746 2.887 20.7142 2.887C20.7853 2.887 20.8555 2.88988 20.9257 2.89662Z" fill="#8A8A8A"/>
</svg>
