<svg width="23" height="24" viewBox="0 0 23 24" fill="none" xmlns="http://www.w3.org/2000/svg">
<path d="M17.4872 0.0936904C17.327 0.0191449 17.15 -0.0117878 16.974 0.00402866C16.798 0.0198451 16.6293 0.0818481 16.4851 0.183752L8.68848 5.98771H1.00213C0.736349 5.98771 0.481453 6.09314 0.293517 6.2808C0.105581 6.46847 0 6.723 0 6.98839V16.9952C0 17.2606 0.105581 17.5151 0.293517 17.7028C0.481453 17.8905 0.736349 17.9959 1.00213 17.9959H8.68848L16.4349 23.7999C16.5838 23.9114 16.7609 23.9793 16.9462 23.996C17.1316 24.0126 17.3179 23.9775 17.4844 23.8944C17.6509 23.8112 17.7908 23.6835 17.8887 23.5254C17.9865 23.3673 18.0384 23.1852 18.0384 22.9993V0.984298C18.0378 0.799504 17.986 0.618475 17.8887 0.461276C17.7914 0.304076 17.6525 0.176847 17.4872 0.0936904Z" fill="#8A8A8A"/>
<path d="M20.0641 20C19.8372 20 19.6244 19.9158 19.4259 19.7474C18.9578 19.3263 18.8586 18.5348 19.2131 17.979C21.4399 14.4591 21.4399 9.54135 19.2131 6.02145C18.8586 5.46568 18.9578 4.67412 19.4259 4.25308C19.8939 3.83204 20.5605 3.94993 20.9151 4.50571C23.695 8.91821 23.695 15.0822 20.9151 19.4948C20.7024 19.8316 20.3903 20 20.0641 20Z" fill="#8A8A8A"/>
</svg>
