<svg width="28" height="24" viewBox="0 0 28 24" fill="none" xmlns="http://www.w3.org/2000/svg">
<path d="M17.4872 0.0936904C17.327 0.0191449 17.15 -0.0117878 16.974 0.00402866C16.798 0.0198451 16.6293 0.0818481 16.4851 0.183752L8.68848 5.98771H1.00213C0.736349 5.98771 0.481453 6.09314 0.293517 6.2808C0.105581 6.46847 0 6.723 0 6.98839V16.9952C0 17.2606 0.105581 17.5151 0.293517 17.7028C0.481453 17.8905 0.736349 17.9959 1.00213 17.9959H8.68848L16.4349 23.7999C16.5838 23.9114 16.7609 23.9793 16.9462 23.996C17.1316 24.0126 17.3179 23.9775 17.4844 23.8944C17.6509 23.8112 17.7908 23.6835 17.8887 23.5254C17.9865 23.3673 18.0384 23.1852 18.0384 22.9993V0.984298C18.0378 0.799504 17.986 0.618475 17.8887 0.461276C17.7914 0.304076 17.6525 0.176847 17.4872 0.0936904Z" fill="#8A8A8A"/>
<path d="M25.4653 11.992L27.7602 9.70041C27.9244 9.50898 28.0102 9.26274 28.0004 9.01089C27.9907 8.75904 27.8861 8.52014 27.7077 8.34192C27.5292 8.16371 27.2899 8.0593 27.0377 8.04957C26.7855 8.03985 26.5389 8.12551 26.3472 8.28945L24.0523 10.581L21.7574 8.28945C21.5657 8.12551 21.3191 8.03985 21.0669 8.04957C20.8147 8.0593 20.5755 8.16371 20.397 8.34192C20.2185 8.52014 20.1139 8.75904 20.1042 9.01089C20.0945 9.26274 20.1803 9.50898 20.3444 9.70041L22.6393 11.992L20.3444 14.2835C20.2395 14.3732 20.1543 14.4836 20.0942 14.6078C20.034 14.7319 20.0002 14.8672 19.9949 15.005C19.9896 15.1428 20.0128 15.2802 20.0632 15.4086C20.1136 15.537 20.19 15.6537 20.2877 15.7512C20.3853 15.8487 20.5021 15.925 20.6307 15.9753C20.7593 16.0256 20.8969 16.0489 21.035 16.0435C21.173 16.0382 21.3084 16.0045 21.4327 15.9444C21.557 15.8843 21.6676 15.7993 21.7574 15.6945L24.0523 13.4029L26.3472 15.6945C26.5389 15.8584 26.7855 15.9441 27.0377 15.9344C27.2899 15.9246 27.5292 15.8202 27.7077 15.642C27.8861 15.4638 27.9907 15.2249 28.0004 14.9731C28.0102 14.7212 27.9244 14.475 27.7602 14.2835L25.4653 11.992Z" fill="#8A8A8A"/>
</svg>
